# xmcd
#
# Track frame offsets:
#	151
#	20560
#	44399
#	64169
#	77578
#
# Disc length: 1246 seconds
#
# Revision: 1
# Processed by: cddbd v1.5.1PL0 Copyright (c) Steve Scherf et al.
# Submitted via: audiograbber 1.83.01
#
DISCID=3804dc05
DTITLE=Strugglers - The Fair Store
DYEAR=2004
DGENRE=
TTITLE0=Goodness Gracious
TTITLE1=The Fair Store (Pastoral)
TTITLE2=Light Weight
TTITLE3=Until I Slept
TTITLE4=Bright Day
EXTD=
EXTT0=
EXTT1=
EXTT2=
EXTT3=
EXTT4=
PLAYORDER=
